<?xml version="1.0" standalone="no"?>
<!DOCTYPE svg PUBLIC "-//W3C//DTD SVG 20010904//EN"
 "http://www.w3.org/TR/2001/REC-SVG-20010904/DTD/svg10.dtd">
<svg version="1.0" xmlns="http://www.w3.org/2000/svg"
 width="444.000000pt" height="92.000000pt" viewBox="0 0 444.000000 92.000000"
 preserveAspectRatio="xMidYMid meet">

<g transform="translate(0.000000,92.000000) scale(0.100000,-0.100000)"
fill="#000000" stroke="none">
<path d="M103 826 c-28 -24 -28 -26 -31 -153 -3 -128 -3 -130 23 -161 l27 -32
138 0 138 0 27 32 c26 31 26 33 23 161 -3 127 -3 129 -31 153 -27 23 -35 24
-157 24 -122 0 -130 -1 -157 -24z"/>
<path d="M539 837 c-32 -25 -39 -56 -39 -182 0 -120 1 -127 25 -150 23 -24 29
-25 163 -25 136 0 139 0 163 26 23 24 24 31 24 161 l0 135 -28 24 c-27 23 -35
24 -160 24 -88 -1 -137 -5 -148 -13z"/>
<path d="M955 825 c-24 -23 -25 -29 -25 -159 0 -128 1 -136 24 -163 l24 -28
136 0 c135 0 136 0 163 28 28 27 28 28 28 163 l0 136 -28 24 c-27 23 -35 24
-163 24 -130 0 -136 -1 -159 -25z"/>
<path d="M1385 825 c-24 -23 -25 -29 -25 -163 0 -136 0 -139 26 -163 25 -23
32 -24 161 -24 l135 0 24 28 c23 27 24 35 24 163 0 130 -1 136 -25 159 -23 24
-29 25 -160 25 -131 0 -137 -1 -160 -25z"/>
<path d="M1813 826 l-28 -24 0 -136 c0 -134 0 -136 27 -163 26 -25 35 -28 128
-31 122 -5 165 2 196 33 23 23 24 30 24 158 0 128 -1 135 -25 161 -24 26 -26
26 -159 26 -128 0 -136 -1 -163 -24z"/>
<path d="M2243 396 l-28 -24 0 -137 0 -137 28 -24 c27 -23 35 -24 157 -24 122
0 130 1 157 24 l28 24 0 137 0 137 -28 24 c-27 23 -35 24 -157 24 -122 0 -130
-1 -157 -24z"/>
<path d="M2682 413 c-30 -12 -42 -61 -42 -178 0 -179 5 -184 192 -185 l136 0
26 31 c25 29 26 36 26 154 0 118 -1 125 -26 154 l-26 31 -136 -1 c-76 0 -143
-3 -150 -6z"/>
<path d="M3525 395 c-24 -23 -25 -29 -25 -158 0 -132 1 -135 26 -161 26 -25
29 -26 161 -26 129 0 135 1 158 25 24 23 25 29 25 160 0 131 -1 137 -25 160
-23 24 -29 25 -160 25 -131 0 -137 -1 -160 -25z"/>
</g>
</svg>
