<?xml version="1.0" standalone="no"?>
<!DOCTYPE svg PUBLIC "-//W3C//DTD SVG 20010904//EN"
 "http://www.w3.org/TR/2001/REC-SVG-20010904/DTD/svg10.dtd">
<svg version="1.0" xmlns="http://www.w3.org/2000/svg"
 width="349.000000pt" height="480.000000pt" viewBox="0 0 349.000000 480.000000"
 preserveAspectRatio="xMidYMid meet">

<g transform="translate(0.000000,480.000000) scale(0.100000,-0.100000)"
fill="#000000" stroke="none">
<path d="M1762 4675 c-141 -52 -300 -190 -386 -335 -86 -146 -120 -281 -114
-456 l5 -121 -86 63 c-99 74 -206 131 -306 165 -58 20 -90 24 -190 24 -119 0
-121 0 -198 -38 -201 -99 -307 -303 -253 -489 44 -153 235 -327 451 -413 85
-33 230 -65 305 -65 l55 -1 -90 -47 c-114 -60 -170 -99 -221 -153 -166 -182
-241 -440 -186 -641 36 -127 118 -221 248 -284 181 -87 379 -79 545 22 72 43
186 149 247 228 44 57 128 210 147 266 28 85 8 -290 -26 -480 -11 -63 -32
-162 -45 -220 -28 -118 -66 -305 -86 -425 -16 -101 -17 -674 -1 -790 7 -44 11
-81 9 -82 -1 -1 -22 48 -46 110 -164 425 -441 763 -760 926 -101 52 -200 90
-301 116 -72 19 -271 45 -341 45 l-48 0 0 -68 c0 -350 144 -648 415 -856 187
-144 320 -213 770 -398 234 -96 345 -149 345 -164 0 -12 40 -8 50 6 3 4 118
64 256 133 138 69 293 151 345 182 258 156 421 317 519 513 61 121 81 212 87
383 5 139 1 193 -28 336 -12 60 2 58 -159 22 -407 -92 -672 -275 -824 -568
-80 -155 -122 -314 -181 -681 -10 -58 -20 -107 -22 -110 -3 -3 -3 137 0 310 6
408 26 589 116 1080 54 293 65 400 58 550 -4 69 -10 139 -13 155 -5 25 3 18
46 -40 73 -96 202 -223 280 -275 180 -121 352 -147 507 -74 87 41 210 167 256
264 95 198 88 350 -22 507 -51 73 -145 164 -220 213 -27 18 -38 31 -30 34 8 2
68 18 134 36 315 85 483 184 549 324 54 114 56 229 5 332 -30 63 -140 161
-223 200 -114 54 -185 69 -326 69 -194 0 -355 -46 -505 -144 -38 -25 -73 -47
-76 -49 -4 -1 6 32 21 75 42 120 54 208 40 296 -25 148 -86 264 -196 375 -106
106 -206 142 -302 107z m161 -66 c109 -56 235 -229 272 -374 42 -165 -11 -350
-178 -619 -34 -55 -61 -103 -60 -107 2 -5 -20 4 -49 18 -28 14 -74 32 -102 39
-71 19 -209 17 -276 -4 l-55 -18 -42 49 c-108 121 -144 275 -109 459 46 240
193 438 403 543 81 41 134 45 196 14z m-1141 -653 c183 -39 335 -132 518 -314
l124 -124 -29 -21 c-113 -79 -179 -204 -200 -379 l-6 -47 -63 -6 c-78 -9 -250
9 -340 35 -232 66 -453 250 -502 417 -60 206 149 448 391 452 22 0 70 -6 107
-13z m2182 -16 c100 -25 165 -61 242 -132 84 -79 108 -135 102 -238 -6 -95
-37 -159 -111 -227 -61 -56 -179 -120 -277 -151 -142 -46 -248 -74 -310 -83
-57 -7 -233 0 -377 16 -42 5 -43 4 -43 -25 0 -22 5 -30 18 -30 74 -1 299 -33
342 -49 29 -11 85 -45 126 -76 226 -173 292 -343 215 -553 -89 -244 -285 -376
-494 -332 -135 28 -302 143 -429 295 -66 79 -178 249 -178 270 0 7 15 16 33
19 81 15 197 99 254 185 53 79 75 158 75 271 0 146 -42 251 -140 352 -32 33
-39 45 -25 42 17 -5 28 6 58 56 161 265 414 407 731 409 80 1 132 -5 188 -19z
m-1181 -425 c129 -33 223 -107 276 -218 181 -371 -199 -754 -573 -579 -81 38
-147 106 -193 199 -37 75 -38 80 -38 187 0 104 2 115 31 176 40 83 98 148 165
185 116 63 222 79 332 50z m-564 -568 c39 -112 128 -220 220 -267 55 -28 182
-60 238 -60 51 0 52 -3 27 -112 -61 -269 -288 -539 -510 -608 -225 -69 -482
33 -572 228 -22 48 -27 74 -30 170 -4 100 -1 122 22 195 34 110 86 196 172
283 64 65 86 80 205 137 145 69 203 95 206 93 0 0 10 -27 22 -59z m578 -782
c-4 -146 -11 -205 -50 -420 -86 -465 -112 -687 -123 -1033 -4 -117 -8 -211
-10 -209 -2 1 -8 93 -15 202 -18 322 4 560 87 925 73 322 93 466 95 662 1 94
3 107 11 78 6 -21 8 -104 5 -205z m1015 -587 c21 -116 16 -336 -9 -434 -72
-273 -260 -488 -602 -685 -93 -54 -446 -233 -482 -244 -19 -6 -21 -4 -15 16 3
13 17 92 31 174 66 388 108 545 185 694 136 261 373 432 725 522 159 41 151
43 167 -43z m-2444 -58 c557 -100 948 -491 1173 -1172 24 -70 40 -130 38 -132
-3 -3 -77 25 -164 63 -88 38 -232 99 -320 136 -584 245 -845 496 -926 888 -14
71 -24 186 -20 230 2 13 106 7 219 -13z"/>
</g>
</svg>
