<?xml version="1.0" standalone="no"?>
<!DOCTYPE svg PUBLIC "-//W3C//DTD SVG 20010904//EN"
 "http://www.w3.org/TR/2001/REC-SVG-20010904/DTD/svg10.dtd">
<svg version="1.0" xmlns="http://www.w3.org/2000/svg"
 width="613.000000pt" height="900.000000pt" viewBox="0 0 613.000000 900.000000"
 preserveAspectRatio="xMidYMid meet">

<g transform="translate(0.000000,900.000000) scale(0.100000,-0.100000)"
fill="#000000" stroke="none">
<path d="M2625 8725 c-79 -19 -283 -129 -337 -182 -105 -103 -102 -281 4 -391
l43 -44 -40 20 c-173 85 -331 84 -481 -4 -26 -15 -76 -54 -110 -86 -56 -53
-69 -60 -123 -69 -74 -12 -84 -15 -219 -81 -146 -72 -213 -137 -232 -225 -22
-108 7 -214 76 -279 42 -40 39 -42 -24 -10 -262 132 -557 11 -705 -289 -50
-100 -66 -164 -68 -264 -2 -116 30 -194 103 -252 64 -50 102 -61 228 -65 58
-1 106 -3 107 -3 1 -1 -23 -25 -54 -53 -69 -65 -148 -183 -168 -251 -17 -59
-20 -175 -4 -230 9 -34 7 -47 -20 -112 -26 -61 -31 -87 -31 -153 0 -67 4 -87
30 -138 39 -79 89 -136 162 -185 66 -45 97 -60 211 -99 l78 -26 -88 -30 c-156
-52 -254 -136 -289 -247 -53 -172 -5 -362 134 -534 110 -136 191 -183 311
-183 131 0 220 44 282 141 18 27 34 47 36 45 3 -2 -1 -23 -7 -45 -18 -70 -14
-200 9 -262 44 -114 151 -212 301 -274 182 -76 444 -22 598 122 103 97 115
160 57 296 -6 14 11 9 74 -24 69 -35 99 -60 204 -168 120 -124 173 -191 252
-319 48 -78 37 -94 -38 -55 -28 14 -93 36 -145 49 -123 31 -312 35 -412 9
-101 -27 -239 -99 -310 -162 -14 -12 -72 -36 -130 -53 -191 -57 -338 -148
-390 -240 -23 -42 -25 -54 -24 -170 1 -71 8 -153 17 -190 8 -36 27 -119 41
-185 15 -66 31 -136 36 -156 34 -126 -35 -398 -133 -523 -24 -29 -28 -42 -20
-55 26 -42 150 -52 276 -22 56 13 80 15 82 7 2 -6 16 -72 30 -146 15 -74 40
-200 56 -280 28 -141 46 -252 69 -435 17 -137 49 -352 64 -427 13 -70 10 -84
-27 -126 -52 -57 -17 -147 78 -202 113 -65 391 -153 570 -181 53 -9 176 -12
366 -11 321 2 435 14 699 78 191 45 257 67 365 121 102 51 127 71 150 120 15
32 15 38 0 87 -14 43 -15 60 -5 92 6 21 22 80 35 129 13 50 37 142 55 205 29
109 63 233 131 485 17 61 39 139 49 175 11 36 47 169 81 295 34 127 70 262 80
300 91 337 131 567 130 743 -1 109 -4 128 -25 170 -26 51 -74 100 -148 152
l-47 32 72 82 c158 177 259 366 308 576 17 70 17 406 0 588 0 6 -10 12 -21 12
-14 0 -27 -16 -47 -56 -65 -134 -283 -287 -581 -408 -484 -198 -648 -288 -802
-441 -68 -67 -82 -77 -104 -71 -22 5 -26 12 -26 45 0 52 42 216 74 285 14 31
26 59 26 62 0 20 165 351 181 364 11 8 109 214 109 227 0 24 17 13 30 -17 18
-43 105 -118 175 -151 273 -129 630 -30 715 198 32 85 34 128 11 215 -22 84
-91 264 -117 304 -9 13 -12 24 -7 24 10 0 57 -91 106 -200 53 -121 67 -149 91
-184 32 -47 87 -91 133 -107 72 -23 176 2 258 63 75 57 192 188 234 261 77
137 93 188 89 282 -3 78 -5 84 -45 137 -48 63 -143 139 -223 177 l-55 26 100
6 c123 8 166 19 229 61 36 24 58 49 80 92 29 56 31 66 31 165 -1 122 -7 148
-64 265 -51 106 -147 208 -236 252 -108 53 -269 44 -397 -22 -37 -19 -37 -19
-21 29 8 23 15 76 16 117 2 133 -37 225 -137 326 -106 106 -253 163 -423 164
l-83 0 0 50 c0 114 -73 225 -197 299 l-64 38 38 16 c100 41 163 133 163 240 0
164 -117 336 -315 462 -67 43 -128 65 -202 76 -86 12 -152 -2 -257 -56 -49
-25 -90 -44 -91 -43 -2 2 2 31 8 66 8 50 7 75 -7 129 -36 147 -146 251 -312
294 -89 22 -260 24 -349 4z m359 -53 c115 -42 221 -142 246 -230 12 -46 13
-145 1 -192 -5 -19 -12 -48 -15 -63 -4 -15 -30 -54 -60 -86 -29 -31 -72 -86
-96 -120 l-42 -63 -46 6 c-24 3 -68 6 -97 6 l-52 0 -6 78 c-6 85 -40 182 -64
182 -11 0 -13 -5 -8 -17 23 -54 45 -154 43 -193 l-3 -45 -80 -27 c-44 -15 -88
-30 -97 -33 -12 -5 -29 13 -64 67 -26 40 -92 116 -145 168 -123 120 -143 158
-137 256 6 90 28 128 107 181 76 51 216 121 278 138 75 22 263 14 337 -13z
m703 -401 c87 -30 211 -111 273 -178 31 -35 75 -97 96 -139 34 -68 38 -84 38
-148 0 -103 -34 -158 -122 -198 -47 -21 -192 -48 -265 -48 -51 0 -211 -24
-265 -39 -27 -8 -34 -7 -39 7 -20 56 -57 130 -84 170 l-31 46 30 26 c37 29
145 77 213 93 27 7 49 15 49 20 0 32 -122 2 -239 -58 l-84 -44 -71 49 c-39 26
-83 54 -98 61 -16 7 -28 15 -28 18 0 4 18 31 41 61 139 187 337 319 479 319
30 0 78 -8 107 -18z m-1531 -142 c138 -43 207 -85 306 -187 l91 -94 -82 -78
-82 -79 -46 14 c-63 19 -160 27 -212 18 -73 -14 -59 -29 22 -25 69 4 190 -17
209 -36 4 -4 -6 -44 -23 -90 -16 -46 -29 -100 -29 -121 l0 -38 -64 -6 c-35 -3
-116 -25 -182 -48 -110 -39 -127 -42 -224 -43 -117 -1 -170 16 -224 70 -56 57
-71 100 -70 199 0 77 5 102 33 172 74 188 221 334 381 379 67 18 120 16 196
-7z m-575 -251 c-82 -145 -106 -331 -57 -440 26 -59 71 -108 131 -141 36 -20
40 -27 43 -66 2 -24 -2 -49 -8 -55 -5 -5 -50 -24 -99 -41 l-89 -31 -52 79
c-28 43 -92 117 -142 165 -117 113 -141 159 -136 257 5 111 35 145 210 239 89
49 180 85 211 86 16 0 15 -6 -12 -52z m1456 -11 c112 -39 176 -87 247 -181 69
-91 99 -187 100 -316 0 -150 -40 -245 -154 -359 -135 -136 -329 -193 -491
-145 -77 23 -167 70 -217 115 -206 181 -240 459 -85 695 44 68 44 68 103 116
129 104 327 134 497 75z m792 -347 c110 -21 238 -103 285 -183 31 -53 48 -131
38 -177 -7 -30 -14 -37 -67 -58 -120 -47 -184 -84 -233 -132 -60 -61 -76 -108
-71 -216 l4 -78 -45 -14 c-67 -20 -163 -11 -238 23 -50 22 -81 47 -151 121
-125 133 -124 131 -68 201 26 32 50 63 54 68 16 22 53 100 53 112 0 36 64 16
185 -57 90 -54 95 -56 95 -37 0 18 -147 113 -208 134 -53 18 -54 18 -48 53 3
19 6 71 6 116 l0 80 98 22 c145 33 224 39 311 22z m-2719 -169 c111 -41 184
-88 261 -168 87 -89 91 -103 42 -145 -20 -18 -54 -51 -74 -72 l-37 -39 -63 18
c-95 27 -249 24 -249 -5 0 -6 41 -10 98 -10 90 0 192 -20 192 -38 0 -3 -11
-33 -24 -66 -13 -34 -30 -87 -37 -118 -11 -52 -15 -58 -38 -58 -33 0 -142 -30
-254 -69 -75 -26 -103 -31 -183 -31 -81 0 -103 4 -149 26 -159 75 -189 257
-78 481 70 141 207 272 321 307 81 25 180 20 272 -13z m1210 -99 c6 -34 20
-83 31 -109 l20 -46 -26 -39 c-29 -44 -44 -98 -26 -98 6 0 16 12 22 28 6 15
19 36 30 48 l20 21 72 -72 c40 -40 78 -74 86 -76 11 -4 9 -19 -8 -79 -26 -94
-39 -163 -52 -267 -11 -95 -31 -145 -67 -165 -22 -11 -26 -11 -36 6 -44 74
-94 129 -146 164 -99 66 -156 83 -306 89 l-132 6 -20 36 c-36 63 -45 121 -32
187 28 134 116 258 252 351 80 56 118 74 223 108 l70 23 7 -26 c3 -15 11 -55
18 -90z m-427 -34 c-46 -46 -49 -48 -105 -48 l-58 0 0 48 0 47 105 0 104 0
-46 -47z m-93 -88 c0 -4 -16 -34 -35 -66 -20 -33 -42 -81 -50 -108 -22 -72
-19 -185 5 -248 11 -28 19 -52 17 -53 -121 -48 -186 -103 -235 -201 -35 -69
-66 -168 -64 -201 4 -53 -58 -2 -116 94 -78 129 -94 278 -46 423 75 225 261
363 497 367 15 0 27 -3 27 -7z m2580 -29 c155 -26 304 -121 378 -244 23 -38
34 -73 42 -130 21 -148 -13 -232 -149 -372 l-73 -75 -92 34 -91 34 0 103 c0
91 -3 109 -23 142 -26 41 -48 50 -37 15 25 -82 34 -138 29 -178 -11 -83 -7
-80 -93 -80 -42 0 -103 -7 -134 -15 -32 -8 -60 -15 -62 -15 -2 0 -22 35 -45
78 -23 42 -70 116 -105 163 -134 179 -146 268 -53 374 66 75 213 144 349 163
88 13 97 13 159 3z m-1052 -329 c25 -26 72 -97 72 -109 0 -5 -28 -21 -63 -38
-106 -50 -240 -205 -268 -310 -6 -22 -15 -56 -20 -76 -8 -33 -15 -39 -68 -58
-69 -25 -84 -26 -115 -6 -12 8 -56 23 -97 33 -68 17 -76 22 -107 65 -18 25
-47 86 -64 134 -30 83 -31 96 -32 238 0 115 3 159 16 190 9 22 20 39 24 38 5
-1 34 -11 64 -23 30 -11 93 -25 140 -31 81 -10 100 -18 100 -48 0 -23 53 -112
73 -123 30 -16 30 -3 -1 53 -17 30 -33 68 -36 84 -6 30 -6 30 72 54 44 12 101
36 128 51 l48 29 56 -62 c30 -34 65 -72 78 -85z m-1297 -157 c197 -42 331
-175 346 -345 7 -71 -7 -132 -53 -228 -35 -74 -80 -189 -107 -272 -16 -51 -13
-51 -115 -16 -40 14 -102 28 -137 32 -60 6 -63 8 -69 37 -10 49 -7 109 9 167
17 64 18 80 6 80 -4 0 -18 -23 -30 -51 -16 -40 -21 -73 -21 -140 0 -89 0 -89
-27 -94 -16 -4 -67 -19 -114 -34 l-86 -27 -37 57 c-96 148 -137 347 -101 489
31 124 57 180 112 241 96 106 243 142 424 104z m1663 -17 c33 -14 87 -46 121
-71 59 -44 158 -154 185 -206 11 -22 10 -27 -9 -40 -12 -9 -50 -39 -84 -67
l-61 -50 -70 27 c-80 31 -196 49 -196 30 0 -12 1 -12 37 -16 52 -5 177 -49
201 -70 2 -2 -14 -35 -34 -75 -20 -40 -42 -94 -49 -119 l-11 -46 -100 -6 c-54
-4 -164 -7 -244 -8 -126 0 -151 2 -190 20 -59 27 -79 46 -101 97 -22 51 -25
160 -6 237 42 171 209 355 349 385 77 16 197 6 262 -22z m162 -36 c-3 -2 -21
9 -40 24 -30 24 -33 30 -18 35 12 4 24 -3 39 -24 13 -17 21 -32 19 -35z
m-2642 22 c3 -9 4 -19 1 -24 -7 -11 30 -152 49 -188 15 -29 14 -33 -18 -94
l-33 -63 -39 12 c-133 40 -337 -39 -455 -176 -24 -28 -47 -51 -50 -51 -15 0
-19 75 -8 128 39 190 211 363 441 443 97 33 104 34 112 13z m3967 -73 c83 -29
115 -48 159 -95 117 -123 180 -286 167 -436 -13 -153 -122 -233 -317 -235
-121 0 -300 15 -332 28 -25 11 -28 17 -28 62 0 28 -7 75 -16 105 -29 104 -29
108 2 120 16 6 57 14 91 17 35 3 63 10 63 14 0 13 -90 11 -151 -3 l-52 -12
-26 34 c-14 19 -49 59 -77 89 l-50 54 65 63 c96 91 138 123 208 156 124 59
207 70 294 39z m-2627 -143 c13 -35 35 -85 50 -111 26 -44 27 -47 9 -54 -30
-11 -117 -80 -139 -110 -12 -15 -45 -73 -74 -128 -84 -159 -140 -252 -140
-232 0 17 64 187 104 275 55 123 70 183 64 267 l-5 63 34 16 c19 9 40 30 50
51 9 19 19 33 21 30 2 -2 14 -32 26 -67z m1871 -73 c182 -61 320 -206 361
-380 20 -87 16 -245 -7 -290 -9 -16 -28 -52 -42 -80 -29 -56 -120 -149 -186
-190 -58 -36 -161 -71 -233 -80 -139 -17 -323 54 -426 165 -111 120 -164 310
-128 461 51 219 201 363 431 412 61 14 160 6 230 -18z m-3105 -14 c0 -5 24
-33 53 -62 52 -53 52 -54 64 -144 6 -49 15 -101 18 -115 4 -14 -8 -1 -25 29
-56 95 -101 151 -146 182 -46 32 -48 40 -12 92 19 26 48 37 48 18z m-149 -102
c80 -27 165 -116 220 -228 48 -97 117 -212 146 -243 l26 -28 -44 -42 c-25 -24
-57 -58 -72 -77 -21 -25 -33 -32 -50 -27 -45 11 -121 71 -150 118 -30 48 -41
56 -51 39 -18 -29 57 -119 142 -171 40 -24 52 -37 47 -49 -6 -14 -30 -91 -54
-171 -9 -31 -44 -36 -156 -20 -315 44 -542 208 -562 404 -10 98 56 233 172
352 121 124 274 180 386 143z m1685 -38 c47 -22 88 -53 140 -105 89 -89 134
-174 141 -270 l5 -63 -45 -50 c-59 -68 -79 -130 -78 -242 l1 -88 -44 -41 c-72
-67 -182 -112 -270 -112 -56 1 -182 23 -194 34 -4 4 -12 38 -18 74 -6 37 -15
81 -19 99 -7 30 -5 33 36 54 93 47 179 122 179 156 0 36 -21 27 -68 -27 -61
-71 -182 -137 -182 -99 0 16 -74 120 -115 161 -20 21 -35 41 -33 45 1 5 24 40
49 78 26 39 61 104 79 145 43 100 65 137 114 188 49 52 93 80 149 97 50 14 84
8 173 -34z m160 -48 c-7 -7 -36 16 -36 27 0 5 8 10 18 12 16 3 31 -27 18 -39z
m255 -253 c27 0 49 -3 49 -7 -1 -5 -30 -22 -65 -39 l-65 -31 -10 36 c-15 56
-14 62 16 51 14 -6 48 -10 75 -10z m450 -70 c3 -47 11 -105 18 -129 7 -23 11
-44 9 -46 -2 -1 -35 -19 -74 -39 -89 -46 -207 -156 -167 -156 4 0 39 25 78 55
39 30 95 65 124 79 l54 25 37 -57 c21 -31 61 -79 89 -107 l52 -50 -30 -25
c-49 -42 -145 -164 -222 -283 -81 -124 -138 -182 -199 -203 -37 -13 -44 -12
-92 10 -111 50 -282 270 -314 403 -4 16 -10 33 -14 38 -18 24 -22 141 -6 207
36 155 150 254 365 319 70 20 237 49 271 45 12 -1 16 -21 21 -86z m-1689 -31
c164 -34 314 -161 392 -334 115 -254 -6 -571 -265 -697 -164 -80 -332 -79
-494 2 -305 151 -400 522 -205 805 124 180 353 269 572 224z m3106 -110 c64
-29 143 -87 194 -144 117 -128 70 -298 -145 -529 -76 -82 -111 -112 -160 -136
-91 -45 -127 -48 -180 -16 -62 36 -111 109 -169 250 -48 117 -75 172 -112 228
-17 27 -17 27 11 42 16 8 57 42 91 76 l61 62 53 -36 c29 -19 69 -51 87 -70 19
-20 39 -36 43 -36 34 0 -40 90 -112 136 -25 15 -47 29 -49 31 -2 1 12 33 32
70 19 37 38 85 42 105 6 30 12 37 34 40 38 4 205 -39 279 -73z m-1068 -347
c41 -17 82 -33 91 -35 12 -4 19 -22 24 -59 15 -114 57 -248 78 -248 10 0 9 6
-17 105 -53 205 -58 191 62 198 53 3 109 10 123 15 26 10 27 8 59 -61 87 -191
113 -270 118 -353 4 -65 1 -89 -15 -125 -39 -87 -125 -161 -238 -205 -78 -30
-277 -27 -365 5 -36 13 -67 27 -70 30 -3 3 -25 19 -49 36 -55 37 -86 83 -111
164 -33 106 -20 252 31 354 41 80 165 221 189 213 8 -2 49 -18 90 -34z m-1020
-100 c0 -8 -7 -11 -17 -9 -10 3 -36 8 -58 12 l-40 7 37 19 c20 10 40 24 44 31
8 12 33 -32 34 -60z m-1720 -39 c7 -49 18 -108 26 -131 12 -43 12 -44 -32
-110 -40 -60 -55 -102 -36 -102 4 0 26 27 49 60 24 33 47 60 53 60 5 0 19 -18
30 -41 12 -22 48 -67 81 -99 l60 -59 -18 -28 c-9 -15 -47 -68 -83 -118 -36
-49 -78 -110 -94 -135 -52 -79 -77 -99 -144 -120 -116 -36 -169 -25 -272 55
-58 47 -123 122 -174 203 -41 65 -66 158 -67 248 -2 165 68 270 228 340 74 33
216 63 299 63 l82 1 12 -87z m1475 -2 c262 -10 275 -14 338 -99 65 -89 73
-112 59 -190 -11 -68 -70 -201 -123 -280 -57 -82 -178 -219 -232 -260 -69 -52
-113 -66 -201 -60 -166 11 -306 124 -421 341 l-44 82 30 14 c17 7 68 50 114
95 l84 81 28 -23 c68 -55 188 -107 212 -92 7 3 -25 25 -73 48 -89 44 -146 86
-146 105 0 7 6 23 13 38 23 42 47 121 47 150 0 15 4 39 9 52 9 23 13 24 48 16
21 -6 137 -14 258 -18z m896 -298 c1 -102 -2 -116 -30 -184 -17 -41 -49 -105
-72 -144 -124 -211 -246 -481 -280 -617 -6 -27 -15 -48 -19 -48 -4 0 -12 27
-17 60 -18 115 -8 149 151 465 161 321 176 355 216 470 35 101 42 117 46 112
2 -2 4 -53 5 -114z m-277 -58 c58 -9 103 1 145 32 l33 26 -7 -24 c-15 -51 -90
-210 -155 -329 -70 -128 -162 -316 -175 -359 -14 -45 -17 -34 -91 313 -3 11
-7 50 -10 86 -5 58 -2 72 24 130 16 36 37 94 47 130 9 36 19 71 21 78 2 8 25
-3 64 -32 40 -30 75 -47 104 -51z m-1728 -130 c47 -19 98 -35 113 -36 49 -1
62 -14 99 -99 36 -84 78 -150 94 -150 15 0 8 20 -37 113 -25 51 -45 100 -45
109 0 12 14 17 53 22 29 4 80 15 113 25 l59 17 42 -77 c23 -42 48 -98 54 -124
6 -25 38 -85 70 -132 72 -106 81 -147 49 -222 -28 -65 -92 -123 -185 -167
-151 -72 -341 -72 -485 1 -63 32 -153 121 -184 183 -43 85 -52 157 -33 255 28
143 98 317 127 317 5 0 48 -16 96 -35z m3186 -490 c-20 -192 -105 -384 -262
-590 -52 -69 -155 -175 -170 -175 -6 0 -27 -11 -48 -23 -60 -38 -137 -80 -223
-123 -73 -36 -268 -57 -509 -54 -107 1 -213 -2 -235 -8 -22 -5 -53 -13 -70
-16 l-30 -6 30 17 c53 29 467 187 547 208 25 7 97 13 160 14 138 2 201 20 408
113 25 12 65 29 89 40 24 10 41 21 38 24 -3 3 -77 -21 -164 -54 -194 -73 -248
-88 -338 -91 l-70 -3 25 20 c14 10 40 27 58 36 115 59 347 378 667 916 37 63
73 121 79 129 18 23 31 -252 18 -374z m-1727 170 c19 -82 45 -197 59 -255 60
-258 69 -315 70 -435 1 -99 -2 -126 -17 -153 -10 -19 -20 -32 -22 -30 -2 2 -5
46 -6 98 -2 102 -26 232 -82 455 -20 77 -38 152 -41 168 -3 15 -7 36 -11 47
-3 10 -14 66 -24 124 l-18 104 26 33 c23 29 26 31 29 14 2 -11 19 -87 37 -170z
m1577 53 c-10 -18 -36 -62 -57 -98 -78 -132 -320 -500 -352 -535 -10 -11 -36
-43 -57 -70 -67 -86 -127 -134 -230 -185 -55 -27 -101 -48 -103 -47 -1 2 4 25
13 52 16 56 72 152 136 237 24 31 52 74 63 95 18 34 107 162 143 206 8 9 11
17 5 17 -6 0 -21 -15 -34 -34 -13 -19 -67 -90 -120 -157 -164 -212 -189 -253
-228 -370 l-21 -65 -153 -59 c-83 -32 -187 -71 -230 -86 -92 -34 -228 -103
-268 -137 l-29 -24 -1 29 c-5 138 25 227 129 385 144 217 333 353 712 512 74
32 189 80 255 108 183 77 371 184 421 239 26 28 28 23 6 -13z m-1696 -4 c2
-26 31 -174 50 -254 8 -36 17 -76 20 -90 3 -14 -31 47 -75 135 l-79 160 31 36
c34 40 51 44 53 13z m-54 -231 c36 -76 75 -163 87 -193 23 -61 71 -227 71
-249 0 -28 -20 4 -44 70 -13 35 -69 158 -126 274 -94 194 -100 210 -84 222 10
7 21 13 24 13 4 0 36 -62 72 -137z m-119 2 c20 -42 37 -78 37 -82 0 -3 -29 25
-65 63 -57 61 -62 70 -48 82 29 21 38 14 76 -63z m-85 -17 c169 -174 295 -383
382 -633 39 -115 50 -175 30 -175 -5 0 -10 5 -10 12 0 6 -20 52 -45 102 -24
50 -62 132 -83 181 -69 160 -173 312 -338 493 l-75 82 39 0 c35 0 46 -7 100
-62z m-38 -423 c201 -54 346 -195 409 -399 19 -62 37 -186 26 -186 -2 0 -14
19 -26 43 -37 72 -80 126 -137 168 -52 40 -150 89 -175 89 -7 0 -31 13 -53 28
-52 38 -133 69 -217 83 -125 21 -314 -16 -447 -88 -78 -42 -182 -118 -231
-170 -78 -83 -57 -86 32 -5 103 94 248 175 380 212 104 28 261 28 350 -1 74
-25 94 -38 59 -40 -63 -4 -88 -8 -132 -23 -56 -19 -158 -76 -189 -105 -13 -12
-26 -21 -30 -21 -12 0 -104 -130 -171 -241 -68 -113 -150 -210 -375 -439 -79
-80 -143 -149 -143 -153 0 -3 21 8 48 26 46 31 172 152 285 276 l59 64 -36
-69 c-86 -167 -188 -333 -268 -438 -45 -59 -178 -188 -215 -209 l-32 -18 25
55 c25 54 56 158 68 226 3 19 8 46 11 60 3 14 12 75 20 135 52 397 70 465 176
680 105 211 207 323 379 413 72 38 92 44 205 62 71 12 280 3 345 -15z m610
-79 c0 -3 -4 -8 -10 -11 -5 -3 -10 -1 -10 4 0 6 5 11 10 11 6 0 10 -2 10 -4z
m-1472 -167 c-18 -23 -46 -48 -61 -56 -40 -20 -106 -82 -123 -114 -17 -33 -18
-96 -3 -136 8 -22 7 -41 -7 -85 -9 -32 -21 -58 -26 -58 -15 0 -83 71 -107 110
-26 43 -27 101 -2 156 32 71 170 166 306 209 59 19 59 19 23 -26z m976 -82
c122 -45 198 -112 251 -222 21 -42 35 -78 34 -79 -2 -2 -52 -11 -110 -19 -139
-20 -274 -66 -378 -129 -129 -77 -198 -142 -334 -310 -21 -26 -44 -53 -50 -60
-7 -7 -63 -80 -125 -163 -108 -145 -150 -187 -237 -235 -112 -63 -145 -79
-200 -95 -61 -17 -205 -35 -205 -25 0 3 22 17 49 32 45 26 161 131 207 189 94
117 202 292 336 544 158 296 210 378 291 456 55 53 69 62 43 27 -31 -43 -76
-148 -92 -216 -23 -97 -64 -333 -63 -362 1 -32 46 96 54 153 11 77 46 227 66
285 32 94 88 166 168 216 46 29 57 32 152 35 59 1 90 -3 143 -22z m1679 -49
c50 -33 117 -99 143 -140 77 -119 -23 -245 -253 -319 l-72 -23 -20 25 c-27 32
-26 36 7 42 109 20 213 63 250 105 34 38 31 117 -7 168 -32 46 -80 88 -124
111 l-30 15 24 19 c31 24 44 24 82 -3z m-2774 -65 c-27 -64 -39 -75 -39 -36 0
29 32 83 50 83 5 0 0 -21 -11 -47z m2710 -12 c61 -45 111 -113 111 -153 0 -19
-11 -36 -37 -57 -21 -17 -40 -31 -43 -31 -3 0 -16 20 -29 45 -32 61 -88 103
-167 127 -36 11 -64 21 -62 24 10 9 154 83 163 83 6 0 34 -17 64 -38z m-264
-75 c11 -7 45 -19 75 -25 30 -7 66 -19 80 -28 56 -36 102 -106 86 -131 -6 -11
-83 -37 -136 -47 -31 -6 -40 -2 -80 35 -59 54 -144 112 -205 141 l-49 23 75
13 c41 6 86 17 99 22 33 13 33 13 55 -3z m-494 -17 c245 -31 468 -155 596
-331 131 -180 184 -331 184 -528 0 -117 -57 -520 -73 -520 -5 0 -8 4 -8 10 0
8 -100 241 -242 560 -57 129 -152 319 -198 397 -35 61 -33 61 80 -3 48 -27
100 -69 146 -116 66 -68 92 -107 220 -327 26 -46 50 -79 52 -73 4 14 -99 226
-147 300 -84 129 -193 222 -338 288 -61 29 -93 52 -148 108 -122 125 -230 169
-417 168 -65 0 -118 2 -118 4 0 13 102 48 174 59 106 17 136 17 237 4z m-2088
-174 l28 -20 -15 -80 c-8 -44 -17 -102 -21 -129 -4 -26 -10 -44 -15 -40 -10
11 -57 221 -68 303 l-8 58 35 -36 c20 -20 49 -45 64 -56z m1863 74 c43 -7 102
-21 132 -33 48 -19 60 -29 92 -83 68 -110 96 -178 125 -293 21 -84 96 -322
100 -318 2 2 -3 30 -10 63 -7 33 -23 107 -35 164 -30 141 -63 242 -110 329
-44 82 -34 83 42 5 71 -74 133 -172 223 -358 78 -160 335 -742 335 -758 0 -10
-74 29 -145 76 -62 42 -184 159 -246 237 -67 84 -126 184 -223 384 -54 109
-112 221 -130 247 -71 106 -204 225 -325 292 l-64 35 39 7 c21 3 46 8 54 10
32 6 72 5 146 -6z m-239 -61 c33 -14 128 -77 161 -106 l23 -20 -178 -7 c-243
-10 -553 5 -553 27 0 15 128 70 220 94 97 26 279 33 327 12z m1447 -118 c-27
-190 -45 -286 -85 -430 -34 -120 -48 -160 -59 -160 -4 0 -11 37 -14 83 -13
145 -52 266 -127 388 -16 25 -29 48 -29 51 0 3 19 11 43 17 72 22 202 88 243
125 21 19 40 34 41 33 1 -1 -5 -50 -13 -107z m-1939 -36 c55 -13 342 -21 515
-14 l195 8 44 -46 44 -47 -129 -8 c-71 -4 -230 -5 -354 -1 -297 9 -299 10
-415 19 -55 5 -103 8 -107 7 -21 -5 -3 20 40 56 44 38 50 40 97 36 28 -3 59
-7 70 -10z m80 -134 c121 -6 338 -9 482 -8 222 2 265 0 277 -12 8 -8 51 -89
97 -180 85 -173 174 -332 217 -389 19 -25 22 -35 12 -41 -30 -19 -390 -59
-675 -76 -276 -16 -854 77 -1166 188 l-27 9 30 32 c16 18 61 75 100 127 39 52
83 109 97 126 14 17 44 53 66 80 22 27 64 75 94 107 l55 58 60 -5 c34 -3 160
-10 281 -16z m-525 -621 c85 -22 182 -44 215 -50 325 -55 376 -60 640 -60 302
0 428 10 709 56 l80 13 65 -66 c119 -121 295 -250 363 -267 26 -7 26 -8 14
-43 -12 -35 -18 -39 -93 -64 -257 -85 -587 -119 -1148 -120 -495 0 -811 23
-1110 84 -148 30 -148 30 -165 154 -6 43 -14 99 -19 124 -16 82 -31 155 -36
171 -4 11 9 23 42 39 27 13 53 28 58 32 6 5 30 23 54 42 l44 34 66 -20 c36
-11 136 -38 221 -59z m1968 -621 c-27 -46 -65 -105 -83 -133 -18 -27 -44 -71
-59 -97 -15 -27 -28 -48 -30 -48 -2 0 -57 35 -122 78 -66 43 -154 100 -198
128 l-78 49 38 7 c87 15 102 11 205 -58 55 -37 99 -70 99 -75 0 -5 8 -9 18 -9
11 1 42 40 86 106 69 107 99 133 153 134 20 0 18 -6 -29 -82z m-2273 58 c33
-8 81 -17 108 -21 26 -3 47 -9 47 -13 0 -4 -48 -31 -107 -60 l-108 -52 -12 52
c-16 69 -16 108 0 108 6 0 39 -6 72 -14z m2317 -137 l-38 -134 -64 -33 c-35
-17 -65 -30 -67 -28 -2 2 42 78 98 170 56 91 104 165 105 163 2 -2 -13 -64
-34 -138z m-152 115 c0 -4 -83 -127 -96 -143 -2 -2 -40 20 -85 49 -93 62 -92
63 37 79 42 5 78 12 81 15 8 8 63 8 63 0z m-1790 -35 c159 -16 164 -19 83 -51
-38 -15 -151 -61 -253 -103 -217 -90 -240 -99 -244 -94 -2 2 -6 31 -9 65 l-6
60 137 71 c77 40 146 69 157 67 11 -2 72 -9 135 -15z m429 -34 c61 -5 71 -10
198 -96 l133 -90 119 90 118 89 114 7 114 6 -31 -28 c-17 -15 -86 -73 -154
-128 -68 -55 -128 -104 -135 -110 -25 -23 -94 -75 -100 -75 -3 0 -43 24 -88
54 -45 29 -161 104 -257 166 -96 62 -179 116 -184 121 -5 5 13 6 40 4 27 -2
78 -7 113 -10z m96 -197 c39 -25 103 -66 143 -92 39 -26 72 -48 72 -50 0 -1
-51 0 -112 2 l-113 5 -145 95 c-80 53 -149 99 -155 103 -5 4 -93 -27 -195 -68
l-185 -75 -85 12 c-47 7 -93 13 -102 14 -10 1 -20 4 -22 7 -2 2 59 30 137 61
78 31 213 86 301 122 l158 64 117 -77 c64 -43 148 -98 186 -123z m883 119 c70
-46 163 -107 206 -135 48 -31 74 -53 65 -56 -30 -11 -105 -26 -132 -26 -16 0
-74 27 -140 65 -62 36 -120 65 -129 65 -9 0 -45 -26 -80 -58 -126 -114 -127
-115 -238 -120 -55 -3 -100 -2 -100 1 0 3 28 28 63 55 251 202 341 276 345
285 6 11 6 11 140 -76z m-473 65 c-6 -5 -47 -37 -93 -71 l-82 -62 -98 67 c-53
36 -99 68 -101 70 -2 2 83 4 189 4 107 0 190 -4 185 -8z m-614 -231 c66 -43
117 -81 112 -84 -5 -3 -54 -1 -108 4 -205 18 -361 31 -388 31 -46 -1 -23 13
105 64 68 26 127 51 133 56 15 13 21 11 146 -71z m1089 -27 l65 -39 -100 -12
c-119 -14 -248 -17 -243 -4 2 5 37 36 78 69 l74 61 31 -18 c16 -10 59 -35 95
-57z m450 -71 c-12 -43 -32 -112 -44 -153 -13 -41 -36 -122 -52 -179 l-28
-104 -51 -32 c-219 -140 -512 -223 -900 -255 -310 -26 -693 41 -940 163 -113
56 -164 95 -174 135 -15 56 -74 462 -69 467 2 2 39 -3 83 -10 44 -7 105 -16
135 -20 30 -3 66 -8 80 -10 77 -14 377 -34 665 -46 592 -23 1061 17 1265 108
25 11 46 19 48 17 2 -1 -6 -37 -18 -81z m-90 -503 c59 -110 -424 -288 -895
-329 -60 -5 -208 -10 -327 -11 -181 0 -233 3 -316 20 -130 26 -284 66 -349 90
-76 28 -214 99 -240 123 -28 25 -30 68 -5 90 17 15 22 14 77 -20 232 -140 526
-212 890 -218 187 -3 252 0 387 19 229 31 463 104 643 201 55 29 105 53 112
54 7 1 17 -8 23 -19z"/>
<path d="M4770 300 c-28 -28 -9 -70 30 -69 8 0 5 4 -7 9 -15 6 -23 18 -23 33
0 15 9 28 23 35 12 6 16 11 10 11 -7 1 -22 -8 -33 -19z"/>
<path d="M4853 313 c-19 -7 -16 -72 3 -80 37 -14 70 41 44 73 -13 14 -25 16
-47 7z m38 -24 c9 -17 8 -25 -4 -36 -19 -19 -37 -9 -37 21 0 40 23 49 41 15z"/>
<path d="M4948 309 c-22 -13 -23 -52 -2 -70 33 -27 72 33 44 67 -14 16 -19 17
-42 3z m37 -10 c10 -15 -4 -61 -17 -57 -23 8 -33 35 -19 52 16 19 27 20 36 5z"/>
<path d="M5032 278 c-2 -44 0 -48 21 -47 16 1 17 3 5 6 -12 3 -18 17 -21 46
l-4 42 -1 -47z"/>
<path d="M5177 314 c-4 -4 -7 -25 -7 -46 0 -30 4 -38 18 -37 10 0 12 3 5 6
-15 5 -18 33 -3 33 5 0 14 -8 19 -17 8 -14 10 -9 8 22 -2 38 -22 57 -40 39z
m33 -25 c0 -5 -7 -9 -15 -9 -15 0 -20 12 -9 23 8 8 24 -1 24 -14z"/>
<path d="M5252 275 c1 -27 3 -40 5 -27 5 27 20 29 28 2 3 -11 11 -20 16 -20 5
0 2 11 -7 25 -13 20 -14 28 -4 40 7 9 10 18 7 21 -3 3 -11 -5 -18 -18 l-13
-23 -7 25 c-5 18 -7 11 -7 -25z"/>
<path d="M5327 313 c-11 -10 -8 -71 3 -78 6 -4 10 12 10 39 0 47 -2 51 -13 39z"/>
<path d="M5369 318 c-14 -45 -5 -88 19 -88 40 1 63 47 37 74 -14 13 -53 23
-56 14z m35 -14 c31 -12 14 -64 -20 -64 -2 0 -4 16 -4 35 0 38 0 38 24 29z"/>
<path d="M5473 313 c-18 -7 -16 -32 2 -39 21 -8 19 -32 -2 -37 -17 -4 -17 -5
0 -6 25 -1 33 26 13 48 -12 13 -13 20 -4 29 13 13 11 14 -9 5z"/>
<path d="M5582 308 c-26 -26 -7 -79 28 -77 9 0 6 4 -7 9 -15 6 -23 18 -23 33
0 15 9 28 23 35 14 7 17 11 7 11 -9 1 -21 -4 -28 -11z"/>
<path d="M5652 308 c-15 -15 -16 -55 0 -64 8 -5 9 -2 4 11 -16 44 22 75 44 35
8 -15 6 -24 -10 -40 -11 -11 -16 -20 -11 -20 14 0 41 30 41 45 0 17 -27 45
-44 45 -6 0 -17 -5 -24 -12z"/>
<path d="M5747 314 c-4 -4 -6 -26 -6 -48 1 -38 2 -39 8 -11 l7 30 11 -30 11
-30 15 35 15 35 5 -35 c4 -35 4 -35 5 6 2 53 -9 64 -24 22 l-11 -33 -14 33
c-8 19 -17 30 -22 26z"/>
<path d="M5113 303 c23 -6 22 -22 -5 -50 l-21 -23 29 0 c22 0 25 3 14 10 -12
7 -12 12 -2 22 21 21 15 48 -10 47 -17 -1 -19 -2 -5 -6z"/>
<path d="M400 151 c0 -5 7 -12 16 -15 22 -9 24 -8 24 9 0 8 -9 15 -20 15 -11
0 -20 -4 -20 -9z"/>
</g>
</svg>
